<svg width="64" height="64" viewBox="0 0 64 64" fill="none" xmlns="http://www.w3.org/2000/svg">
<path d="M64 48.875V64H0V37.625H26.375V48.875H64Z" fill="#EBEBF1"/>
<path d="M3.75 41.375H22.625V48.875H3.75V41.375Z" fill="#FF6680"/>
<path d="M3.75 52.625H11.375V60.25H3.75V52.625Z" fill="#FF6680"/>
<path d="M15.125 52.625H30.125V60.25H15.125V52.625Z" fill="#FF6680"/>
<path d="M33.875 52.625H48.875V60.25H33.875V52.625Z" fill="#FF6680"/>
<path d="M52.625 52.625H60.25V60.25H52.625V52.625Z" fill="#FF6680"/>
<path d="M37.2697 26.7302L29.5419 26.5022L24.4529 39.5471L37.4977 34.4581L37.2697 26.7302Z" fill="#FFE1BA"/>
<path d="M37.2697 26.7302L24.4529 39.5471L37.4977 34.4581L37.2697 26.7302Z" fill="#FFBFAB"/>
<path d="M57.1997 7.98454L56.6076 7.39241L56.3311 7.11591L50.7552 5.29016L29.5419 26.5023L33.5197 30.4803L37.4977 34.4582L58.7099 13.2448L57.1997 7.98454Z" fill="#FED843"/>
<path d="M58.7099 13.2447L57.1998 7.98446L56.6077 7.39233L33.5198 30.4802L37.4978 34.4581L58.7099 13.2447Z" fill="#FF9100"/>
<path d="M60.023 3.977L56.0459 0L50.7552 5.29012L54.7326 9.26737L58.7099 13.2447L64 7.95412L60.023 3.977Z" fill="#61729B"/>
<path d="M54.7261 9.27271L60.0157 3.98311L63.9922 7.95963L58.7026 13.2492L54.7261 9.27271Z" fill="#47568C"/>
</svg>
