<svg width="58" height="60" viewBox="0 0 58 60" fill="none" xmlns="http://www.w3.org/2000/svg">
<path d="M29 60C25.11 60 21.5212 56.7736 18.8951 50.9151C16.3832 45.3125 15 37.8841 15 30C15 22.1159 16.3832 14.6881 18.8951 9.08488C21.5212 3.22638 25.11 0 29 0C32.89 0 36.4787 3.22638 39.1049 9.08488C41.6167 14.6881 43 22.1159 43 30C43 37.8841 41.6167 45.3125 39.1049 50.9151C36.4787 56.7736 32.89 60 29 60ZM29 2C25.9895 2 22.9716 4.8805 20.7201 9.903C18.3211 15.2545 17 22.3918 17 30C17 37.6082 18.3211 44.7455 20.7201 50.097C22.9716 55.1195 25.9895 58 29 58C32.0105 58 35.0284 55.1195 37.2799 50.097C39.6789 44.7455 41 37.6082 41 30C41 22.3918 39.6789 15.2545 37.2799 9.903C35.0284 4.8805 32.0105 2 29 2Z" fill="#6548A3"/>
<path d="M46.3525 51.0007C44.6635 50.988 42.9789 50.8263 41.3183 50.5175C34.798 49.3497 27.358 46.1896 20.3683 41.6191C15.1847 38.2292 10.6447 34.3135 7.23896 30.295C3.86258 26.3112 1.76483 22.4261 1.17258 19.0597C0.718457 16.4781 1.14658 14.2907 2.44546 12.5584C4.84358 9.36037 9.89996 8.26812 16.6816 9.4825C23.202 10.6502 30.642 13.8104 37.6316 18.3809C42.8152 21.7707 47.3552 25.6865 50.761 29.705C54.1373 33.6887 56.2351 37.5739 56.8273 40.9401C57.2815 43.5219 56.8533 45.7092 55.5545 47.4416C53.795 49.7875 50.605 51.0007 46.3525 51.0007ZM11.6762 11.0037C8.08683 11.0037 5.40308 11.9482 4.04621 13.7581C3.09208 15.0305 2.78821 16.6977 3.14283 18.7132C4.26021 25.0632 11.4515 33.3979 21.4635 39.9452C28.2327 44.372 35.4091 47.4274 41.6708 48.5487C47.5833 49.6076 52.0608 48.7669 53.9537 46.2419C54.9078 44.9695 55.2117 43.3022 54.8571 41.2867C53.7397 34.9367 46.5485 26.6021 36.5365 20.0547C29.7672 15.628 22.5908 12.5726 16.3291 11.4512C14.7943 11.1657 13.2373 11.016 11.6762 11.0037Z" fill="#6548A3"/>
<path d="M11.6474 51.0007C7.39432 51.0007 4.2052 49.7882 2.44595 47.4416C1.14707 45.7092 0.718946 43.5218 1.17307 40.9401C1.76532 37.5738 3.86307 33.6887 7.23945 29.7049C10.6452 25.6864 15.1852 21.7707 20.3688 18.3808C27.3579 13.8103 34.7979 10.6502 41.3188 9.48245C48.1012 8.26795 53.1563 9.3602 55.5544 12.5583C56.8533 14.2907 57.2814 16.4781 56.8273 19.0597C56.2351 22.4261 54.1373 26.3112 50.7609 30.2949C47.3552 34.3134 42.8152 38.2292 37.6316 41.6191C30.6424 46.1896 23.2024 49.3497 16.6816 50.5175C15.021 50.8262 13.3364 50.9879 11.6474 51.0007ZM20.9162 19.2178L21.4634 20.0547C11.4514 26.6021 4.2602 34.9362 3.14282 41.2867C2.7882 43.3022 3.09207 44.9695 4.0462 46.2418C5.9392 48.7668 10.4162 49.6076 16.3291 48.5487C22.5908 47.4273 29.7666 44.3719 36.5364 39.9452C46.5489 33.3978 53.7397 25.0637 54.8571 18.7132C55.2117 16.6977 54.9078 15.0304 53.9537 13.7581C52.0607 11.2331 47.5837 10.3923 41.6708 11.4512C35.4091 12.5726 28.2327 15.6279 21.4634 20.0547L20.9162 19.2178Z" fill="#6548A3"/>
<path d="M29 37C32.866 37 36 33.866 36 30C36 26.134 32.866 23 29 23C25.134 23 22 26.134 22 30C22 33.866 25.134 37 29 37Z" fill="#FF6680"/>
<path d="M5 38C6.65685 38 8 36.6569 8 35C8 33.3431 6.65685 32 5 32C3.34315 32 2 33.3431 2 35C2 36.6569 3.34315 38 5 38Z" fill="#61C5BD"/>
<path d="M45 53C46.6569 53 48 51.6569 48 50C48 48.3431 46.6569 47 45 47C43.3431 47 42 48.3431 42 50C42 51.6569 43.3431 53 45 53Z" fill="#61C5BD"/>
<path d="M36 9C37.6569 9 39 7.65685 39 6C39 4.34315 37.6569 3 36 3C34.3431 3 33 4.34315 33 6C33 7.65685 34.3431 9 36 9Z" fill="#61C5BD"/>
</svg>
