<svg width="56" height="56" viewBox="0 0 56 56" fill="none" xmlns="http://www.w3.org/2000/svg">
<path d="M55.155 13.5211H52.6198L39.0986 31.7746L52.6198 50.0282H55.155C55.6217 50.0282 56 49.6498 56 49.1831V45.9718L54.8733 43.9437L56 41.9155V37.8591L54.8733 35.831L56 33.8028V29.7465L54.8733 27.7183L56 25.6901V21.6338L54.8733 19.6056L56 17.5775V14.3662C56 13.8995 55.6217 13.5211 55.155 13.5211Z" fill="#FF6680"/>
<path d="M38.1409 13.5211H52.6197V50.0282H38.1409V13.5211Z" fill="#FF6680"/>
<path d="M56 41.9155H52.6197L50.3662 43.9437L52.6197 45.9719H56V41.9155Z" fill="#EBEBEB"/>
<path d="M38.1409 41.9155H52.6197V45.9719H38.1409V41.9155Z" fill="white"/>
<path d="M56 33.8027H52.6197L50.3662 35.8309L52.6197 37.8591H56V33.8027Z" fill="#EBEBEB"/>
<path d="M38.1409 33.8027H52.6197V37.8591H38.1409V33.8027Z" fill="white"/>
<path d="M56 25.6901H52.6197L50.3662 27.7182L52.6197 29.7464H56V25.6901Z" fill="#EBEBEB"/>
<path d="M38.1409 25.6901H52.6197V29.7464H38.1409V25.6901Z" fill="white"/>
<path d="M56 17.5774H52.6197L50.3662 19.6056L52.6197 21.6337H56V17.5774Z" fill="#EBEBEB"/>
<path d="M38.1409 17.5774H52.6197V21.6337H38.1409V17.5774Z" fill="white"/>
<path d="M41.5211 14.1972C41.5211 12.3302 40.0078 10.8169 38.1408 10.8169L35.8873 12.9014V37.2394L38.1408 39.2113L41.5211 42.5915V38.5352C41.5211 37.6069 41.1468 35.9301 40.541 34.4789H41.5211V30.4225C41.5211 29.4942 41.1468 27.8175 40.541 26.3662H41.5211V22.3099C41.5211 21.3815 41.1468 19.7048 40.541 18.2535H41.5211V14.1972Z" fill="#EBEBEB"/>
<path d="M30.4226 7.43665L6.76062 27.0423V31.0986L9.01414 33.1268L6.76062 35.1549V39.2113H38.1409V10.8169L30.4226 7.43665Z" fill="white"/>
<path d="M38.1408 6.7605L35.8873 8.84501L38.1408 10.8168C40.0078 10.8168 41.5211 12.3302 41.5211 14.1971V10.1408C41.5211 8.27385 40.0078 6.7605 38.1408 6.7605Z" fill="#FF6680"/>
<path d="M30.4225 6.7605L27.0422 10.8168H38.1408V6.7605H30.4225Z" fill="#FF6680"/>
<path d="M38.1408 14.8732L35.8873 16.9577L38.1408 18.9295C40.0078 18.9295 41.5211 20.4429 41.5211 22.3098V18.2534C41.5211 16.3865 40.0078 14.8732 38.1408 14.8732Z" fill="#FF6680"/>
<path d="M27.0422 14.8732H38.1408V18.9295H27.0422V14.8732Z" fill="#FF6680"/>
<path d="M38.1408 39.2112L35.8873 41.2957L38.1408 46.6478H41.5211V42.5915C41.5211 40.7245 40.0078 39.2112 38.1408 39.2112Z" fill="#FF6680"/>
<path d="M6.76062 39.2112V43.2675H34.7606L38.1409 45.521V39.2112H6.76062Z" fill="#FF6680"/>
<path d="M38.1409 43.2676H34.7606V46.6479C34.7606 48.5148 36.274 50.0282 38.1409 50.0282C40.0078 50.0282 41.5212 48.5148 41.5212 46.6479C41.5212 44.7809 40.0078 43.2676 38.1409 43.2676Z" fill="#A41910"/>
<path d="M38.1408 22.9858L35.8873 25.0703L38.1408 27.0422C40.0078 27.0422 41.5211 28.5555 41.5211 30.4225V26.3661C41.5211 24.4992 40.0078 22.9858 38.1408 22.9858Z" fill="#FF6680"/>
<path d="M27.0422 22.9858L30.4225 27.0422H38.1408V22.9858H27.0422Z" fill="#FF6680"/>
<path d="M38.1408 31.0986L35.8873 33.1831L38.1408 35.155C40.0078 35.155 41.5211 36.6683 41.5211 38.5353V34.4789C41.5211 32.612 40.0078 31.0986 38.1408 31.0986Z" fill="#FF6680"/>
<path d="M6.76062 31.0986H38.1409V35.155H6.76062V31.0986Z" fill="#FF6680"/>
<path d="M6.76062 6.7605H30.4226V27.0422H6.76062V6.7605Z" fill="#6548A3"/>
<path d="M17.3238 10.9859C17.7906 10.9859 18.1689 10.6076 18.1689 10.1408C18.1689 9.67413 17.7906 9.29578 17.3238 9.29578C16.8571 9.29578 16.4788 9.67413 16.4788 10.1408C16.4788 10.6076 16.8571 10.9859 17.3238 10.9859Z" fill="white"/>
<path d="M20.7042 10.9859C21.1709 10.9859 21.5493 10.6076 21.5493 10.1408C21.5493 9.67413 21.1709 9.29578 20.7042 9.29578C20.2375 9.29578 19.8591 9.67413 19.8591 10.1408C19.8591 10.6076 20.2375 10.9859 20.7042 10.9859Z" fill="white"/>
<path d="M24.0845 10.9859C24.5512 10.9859 24.9295 10.6076 24.9295 10.1408C24.9295 9.67413 24.5512 9.29578 24.0845 9.29578C23.6177 9.29578 23.2394 9.67413 23.2394 10.1408C23.2394 10.6076 23.6177 10.9859 24.0845 10.9859Z" fill="white"/>
<path d="M27.4647 10.9859C27.9314 10.9859 28.3098 10.6076 28.3098 10.1408C28.3098 9.67413 27.9314 9.29578 27.4647 9.29578C26.998 9.29578 26.6196 9.67413 26.6196 10.1408C26.6196 10.6076 26.998 10.9859 27.4647 10.9859Z" fill="white"/>
<path d="M13.9436 10.9859C14.4103 10.9859 14.7887 10.6076 14.7887 10.1408C14.7887 9.67413 14.4103 9.29578 13.9436 9.29578C13.4769 9.29578 13.0985 9.67413 13.0985 10.1408C13.0985 10.6076 13.4769 10.9859 13.9436 10.9859Z" fill="white"/>
<path d="M10.5633 10.9859C11.0301 10.9859 11.4084 10.6076 11.4084 10.1408C11.4084 9.67413 11.0301 9.29578 10.5633 9.29578C10.0966 9.29578 9.71826 9.67413 9.71826 10.1408C9.71826 10.6076 10.0966 10.9859 10.5633 10.9859Z" fill="white"/>
<path d="M17.3238 17.7465C17.7906 17.7465 18.1689 17.3682 18.1689 16.9015C18.1689 16.4347 17.7906 16.0564 17.3238 16.0564C16.8571 16.0564 16.4788 16.4347 16.4788 16.9015C16.4788 17.3682 16.8571 17.7465 17.3238 17.7465Z" fill="white"/>
<path d="M20.7042 17.7465C21.1709 17.7465 21.5493 17.3682 21.5493 16.9015C21.5493 16.4347 21.1709 16.0564 20.7042 16.0564C20.2375 16.0564 19.8591 16.4347 19.8591 16.9015C19.8591 17.3682 20.2375 17.7465 20.7042 17.7465Z" fill="white"/>
<path d="M24.0845 17.7465C24.5512 17.7465 24.9295 17.3682 24.9295 16.9015C24.9295 16.4347 24.5512 16.0564 24.0845 16.0564C23.6177 16.0564 23.2394 16.4347 23.2394 16.9015C23.2394 17.3682 23.6177 17.7465 24.0845 17.7465Z" fill="white"/>
<path d="M27.4647 17.7465C27.9314 17.7465 28.3098 17.3682 28.3098 16.9015C28.3098 16.4347 27.9314 16.0564 27.4647 16.0564C26.998 16.0564 26.6196 16.4347 26.6196 16.9015C26.6196 17.3682 26.998 17.7465 27.4647 17.7465Z" fill="white"/>
<path d="M13.9436 17.7465C14.4103 17.7465 14.7887 17.3682 14.7887 16.9015C14.7887 16.4347 14.4103 16.0564 13.9436 16.0564C13.4769 16.0564 13.0985 16.4347 13.0985 16.9015C13.0985 17.3682 13.4769 17.7465 13.9436 17.7465Z" fill="white"/>
<path d="M10.5633 17.7465C11.0301 17.7465 11.4084 17.3682 11.4084 16.9015C11.4084 16.4347 11.0301 16.0564 10.5633 16.0564C10.0966 16.0564 9.71826 16.4347 9.71826 16.9015C9.71826 17.3682 10.0966 17.7465 10.5633 17.7465Z" fill="white"/>
<path d="M17.3238 24.507C17.7906 24.507 18.1689 24.1287 18.1689 23.662C18.1689 23.1952 17.7906 22.8169 17.3238 22.8169C16.8571 22.8169 16.4788 23.1952 16.4788 23.662C16.4788 24.1287 16.8571 24.507 17.3238 24.507Z" fill="white"/>
<path d="M20.7042 24.507C21.1709 24.507 21.5493 24.1287 21.5493 23.662C21.5493 23.1952 21.1709 22.8169 20.7042 22.8169C20.2375 22.8169 19.8591 23.1952 19.8591 23.662C19.8591 24.1287 20.2375 24.507 20.7042 24.507Z" fill="white"/>
<path d="M24.0845 24.507C24.5512 24.507 24.9295 24.1287 24.9295 23.662C24.9295 23.1952 24.5512 22.8169 24.0845 22.8169C23.6177 22.8169 23.2394 23.1952 23.2394 23.662C23.2394 24.1287 23.6177 24.507 24.0845 24.507Z" fill="white"/>
<path d="M27.4647 24.507C27.9314 24.507 28.3098 24.1287 28.3098 23.662C28.3098 23.1952 27.9314 22.8169 27.4647 22.8169C26.998 22.8169 26.6196 23.1952 26.6196 23.662C26.6196 24.1287 26.998 24.507 27.4647 24.507Z" fill="white"/>
<path d="M13.9436 24.507C14.4103 24.507 14.7887 24.1287 14.7887 23.662C14.7887 23.1952 14.4103 22.8169 13.9436 22.8169C13.4769 22.8169 13.0985 23.1952 13.0985 23.662C13.0985 24.1287 13.4769 24.507 13.9436 24.507Z" fill="white"/>
<path d="M10.5633 24.507C11.0301 24.507 11.4084 24.1287 11.4084 23.662C11.4084 23.1952 11.0301 22.8169 10.5633 22.8169C10.0966 22.8169 9.71826 23.1952 9.71826 23.662C9.71826 24.1287 10.0966 24.507 10.5633 24.507Z" fill="white"/>
<path d="M19.014 14.3662C19.4807 14.3662 19.8591 13.9878 19.8591 13.5211C19.8591 13.0544 19.4807 12.676 19.014 12.676C18.5473 12.676 18.1689 13.0544 18.1689 13.5211C18.1689 13.9878 18.5473 14.3662 19.014 14.3662Z" fill="white"/>
<path d="M22.3943 14.3662C22.861 14.3662 23.2393 13.9878 23.2393 13.5211C23.2393 13.0544 22.861 12.676 22.3943 12.676C21.9275 12.676 21.5492 13.0544 21.5492 13.5211C21.5492 13.9878 21.9275 14.3662 22.3943 14.3662Z" fill="white"/>
<path d="M25.7745 14.3662C26.2412 14.3662 26.6196 13.9878 26.6196 13.5211C26.6196 13.0544 26.2412 12.676 25.7745 12.676C25.3078 12.676 24.9294 13.0544 24.9294 13.5211C24.9294 13.9878 25.3078 14.3662 25.7745 14.3662Z" fill="white"/>
<path d="M15.6336 14.3662C16.1004 14.3662 16.4787 13.9878 16.4787 13.5211C16.4787 13.0544 16.1004 12.676 15.6336 12.676C15.1669 12.676 14.7886 13.0544 14.7886 13.5211C14.7886 13.9878 15.1669 14.3662 15.6336 14.3662Z" fill="white"/>
<path d="M12.2534 14.3662C12.7201 14.3662 13.0985 13.9878 13.0985 13.5211C13.0985 13.0544 12.7201 12.676 12.2534 12.676C11.7867 12.676 11.4083 13.0544 11.4083 13.5211C11.4083 13.9878 11.7867 14.3662 12.2534 14.3662Z" fill="white"/>
<path d="M19.014 21.1268C19.4807 21.1268 19.8591 20.7484 19.8591 20.2817C19.8591 19.815 19.4807 19.4366 19.014 19.4366C18.5473 19.4366 18.1689 19.815 18.1689 20.2817C18.1689 20.7484 18.5473 21.1268 19.014 21.1268Z" fill="white"/>
<path d="M22.3943 21.1268C22.861 21.1268 23.2393 20.7484 23.2393 20.2817C23.2393 19.815 22.861 19.4366 22.3943 19.4366C21.9275 19.4366 21.5492 19.815 21.5492 20.2817C21.5492 20.7484 21.9275 21.1268 22.3943 21.1268Z" fill="white"/>
<path d="M25.7745 21.1268C26.2412 21.1268 26.6196 20.7484 26.6196 20.2817C26.6196 19.815 26.2412 19.4366 25.7745 19.4366C25.3078 19.4366 24.9294 19.815 24.9294 20.2817C24.9294 20.7484 25.3078 21.1268 25.7745 21.1268Z" fill="white"/>
<path d="M15.6336 21.1268C16.1004 21.1268 16.4787 20.7484 16.4787 20.2817C16.4787 19.815 16.1004 19.4366 15.6336 19.4366C15.1669 19.4366 14.7886 19.815 14.7886 20.2817C14.7886 20.7484 15.1669 21.1268 15.6336 21.1268Z" fill="white"/>
<path d="M12.2534 21.1268C12.7201 21.1268 13.0985 20.7484 13.0985 20.2817C13.0985 19.815 12.7201 19.4366 12.2534 19.4366C11.7867 19.4366 11.4083 19.815 11.4083 20.2817C11.4083 20.7484 11.7867 21.1268 12.2534 21.1268Z" fill="white"/>
<path d="M3.38035 47.4929H2.53528V45.8028H3.38035C4.77832 45.8028 5.91556 44.6655 5.91556 43.2676V6.76051C5.91556 5.36254 4.77832 4.2253 3.38035 4.2253H2.53528V2.53516H3.38035C5.71026 2.53516 7.6057 4.43059 7.6057 6.76051V43.2676C7.6057 45.5975 5.71026 47.4929 3.38035 47.4929Z" fill="#EBEBEB"/>
<path d="M1.60845 0.00193005C0.69938 0.044747 0 0.827846 0 1.73793V55.493C0 55.773 0.227042 56 0.507042 56H2.87324C3.15324 56 3.38028 55.773 3.38028 55.493V1.69016C3.38028 0.729592 2.57904 -0.0438164 1.60845 0.00193005Z" fill="#CCCCCC"/>
</svg>
