<svg width="64" height="64" viewBox="0 0 64 64" fill="none" xmlns="http://www.w3.org/2000/svg">
<g clip-path="url(#clip0)">
<path d="M53.8561 28.8106C54.5689 28.1317 54.8497 27.1152 54.5865 26.1666C54.3232 25.2181 53.5588 24.4917 52.5981 24.2771C51.6373 24.0626 50.6365 24.3948 49.9947 25.1413L49.5147 25.6426C48.1814 24.7146 44.4908 21.9519 36.9174 21.0666C36.4722 21.0236 36.0455 21.2559 35.8401 21.6533L32.0001 29.3333L28.1601 21.6533C27.9546 21.2559 27.528 21.0236 27.0828 21.0666C19.2641 21.9626 15.5948 24.8426 14.3574 25.7279L13.9201 25.2693C13.4168 24.7404 12.7195 24.4399 11.9894 24.4373C10.9246 24.4391 9.96296 25.0742 9.54323 26.0528C9.1235 27.0314 9.32617 28.1659 10.0588 28.9386L14.4854 33.5999L18.1548 37.472L17.2161 38.3039C16.3614 39.0648 15.8475 40.1365 15.7894 41.2792C15.7312 42.422 16.1337 43.5403 16.9068 44.384L20.0854 47.8293C20.4897 48.2275 20.7174 48.7712 20.7174 49.3386C20.7174 49.9061 20.4897 50.4498 20.0854 50.8479L18.4534 52.48L17.6854 51.808C17.28 51.4508 16.6722 51.4508 16.2668 51.808L7.45609 59.7439C6.79642 60.3346 6.57019 61.2714 6.88757 62.098C7.20496 62.9246 7.99997 63.4692 8.88542 63.4666H23.2961C23.8234 63.4682 24.3326 63.2744 24.7254 62.9226L26.6241 61.216C26.8516 61.0137 26.9808 60.7232 26.9788 60.4189C26.9767 60.1145 26.8436 59.8258 26.6134 59.6266L25.8454 58.9546L27.9361 56.9173C28.5386 56.3306 29.3458 56.0016 30.1868 56H32.1921C35.3147 56.0063 38.2429 54.4845 40.0321 51.9253C41.2671 50.1394 42.5951 48.4197 44.0107 46.7733C44.1293 46.639 44.233 46.4924 44.3201 46.3359L44.3414 46.304L51.2427 38.9333C52.387 37.7193 52.3491 35.8128 51.1574 34.6453C50.6197 34.1115 49.8988 33.8025 49.1414 33.7813L49.3121 33.5999L53.8561 28.8106Z" fill="#F2CCD0"/>
<path d="M49.5148 25.6426L41.9628 33.5999L40.2241 35.4239L33.8561 42.1333H29.9414L21.8348 33.5999L14.3574 25.7279C15.5948 24.8426 19.2641 21.9626 27.0828 21.0666C27.528 21.0236 27.9546 21.2559 28.1601 21.6533L32.0001 29.3333L35.8401 21.6533C36.0456 21.2559 36.4722 21.0236 36.9174 21.0666C44.4908 21.9519 48.1814 24.7146 49.5148 25.6426Z" fill="#EDEBF5"/>
<path d="M32.0001 45.3333C31.5858 45.3333 31.209 45.0933 31.0337 44.7179L23.567 28.7179C23.3988 28.3716 23.4303 27.9615 23.6493 27.6449C23.8684 27.3283 24.241 27.1544 24.6244 27.1897C25.0078 27.225 25.3423 27.4642 25.4998 27.8155L32.0001 41.744L38.5004 27.8155C38.7549 27.2913 39.3831 27.0685 39.9111 27.315C40.4391 27.5615 40.6715 28.1861 40.4331 28.7179L32.9665 44.7179C32.7912 45.0933 32.4144 45.3333 32.0001 45.3333Z" fill="#C4C4D1"/>
<path d="M26.6241 61.216L24.7254 62.9227C24.3326 63.2745 23.8234 63.4682 23.2961 63.4667H8.88542C7.99997 63.4693 7.20496 62.9247 6.88757 62.0981C6.57019 61.2714 6.79642 60.3347 7.45609 59.744L16.2668 51.808C16.6722 51.4509 17.28 51.4509 17.6854 51.808L18.4534 52.48L25.8454 58.9547L26.6134 59.6267C26.8436 59.8259 26.9767 60.1146 26.9788 60.419C26.9808 60.7233 26.8516 61.0138 26.6241 61.216Z" fill="#6548A3"/>
<path d="M21.3334 61.3333C21.0505 61.3332 20.7793 61.2208 20.5793 61.0208L18.6955 59.137C18.2913 58.7185 18.2971 58.0532 18.7085 57.6418C19.12 57.2303 19.7853 57.2245 20.2038 57.6288L22.0875 59.5125C22.3925 59.8176 22.4837 60.2763 22.3187 60.6748C22.1536 61.0733 21.7648 61.3332 21.3334 61.3333Z" fill="#3D324C"/>
<path d="M53.856 28.8107L49.312 33.6L49.1413 33.7814L44.8 38.3467V37.3333C44.8019 36.2533 44.1522 35.2787 43.1545 34.8652C42.1567 34.4516 41.0081 34.6807 40.2453 35.4453L40.224 35.424L41.9627 33.6L49.5147 25.6427L49.9947 25.1414C50.6364 24.3949 51.6372 24.0626 52.598 24.2772C53.5587 24.4917 54.3232 25.2181 54.5864 26.1667C54.8496 27.1153 54.5688 28.1317 53.856 28.8107Z" fill="#FF6680"/>
<path d="M40.2454 35.4453C39.7456 35.9464 39.4655 36.6256 39.4668 37.3333V43.968L37.5574 45.9733C36.7737 46.7754 35.738 47.2838 34.6241 47.4133C34.4447 47.4469 34.2626 47.4647 34.0801 47.4666H29.7174C29.5349 47.4647 29.3529 47.4469 29.1734 47.4133C28.0693 47.2867 27.0416 46.7861 26.2614 45.9946L18.1548 37.472L14.4854 33.6L10.0588 28.9386C9.34593 28.2597 9.06515 27.2432 9.32837 26.2946C9.5916 25.3461 10.356 24.6197 11.3168 24.4051C12.2775 24.1906 13.2783 24.5228 13.9201 25.2693L14.3574 25.728L21.8348 33.6L29.9414 42.1333H33.8561L40.2241 35.424L40.2454 35.4453Z" fill="#FF6680"/>
<path d="M51.2428 38.9334L44.3414 46.304C44.6408 45.8162 44.7996 45.2551 44.8001 44.6827V38.3467L49.1414 33.7814C49.8988 33.8026 50.6197 34.1116 51.1574 34.6454C52.3491 35.8129 52.387 37.7194 51.2428 38.9334Z" fill="#F2CCD0"/>
<path d="M29.8668 5.86666H25.6001V1.59999C25.6001 1.01089 25.1225 0.533325 24.5334 0.533325C23.9443 0.533325 23.4668 1.01089 23.4668 1.59999V5.86666H19.2001C18.611 5.86666 18.1334 6.34422 18.1334 6.93333C18.1334 7.52243 18.611 7.99999 19.2001 7.99999H23.4668V12.2667C23.4668 12.8558 23.9443 13.3333 24.5334 13.3333C25.1225 13.3333 25.6001 12.8558 25.6001 12.2667V7.99999H29.8668C30.4559 7.99999 30.9334 7.52243 30.9334 6.93333C30.9334 6.34422 30.4559 5.86666 29.8668 5.86666Z" fill="#FF6680"/>
<path d="M46.9334 5.8667H36.2667C35.6776 5.8667 35.2001 6.34426 35.2001 6.93337C35.2001 7.52247 35.6776 8.00003 36.2667 8.00003H46.9334C47.5225 8.00003 48.0001 7.52247 48.0001 6.93337C48.0001 6.34426 47.5225 5.8667 46.9334 5.8667Z" fill="#61C5BD"/>
<path d="M59.1041 13.2949L63.6907 8.67519C63.9592 8.40463 64.0629 8.01138 63.9629 7.64359C63.8628 7.2758 63.5741 6.98934 63.2055 6.89212C62.837 6.7949 62.4445 6.90169 62.1761 7.17226L57.6001 11.7813L53.0241 7.17226C52.609 6.754 51.9335 6.75137 51.5153 7.16639C51.097 7.58142 51.0944 8.25693 51.5094 8.67519L56.0961 13.2949L51.5094 17.92C51.0941 18.3383 51.0965 19.014 51.5147 19.4293C51.933 19.8447 52.6087 19.8423 53.0241 19.424L57.6001 14.8096L62.1761 19.4133C62.4447 19.6839 62.8373 19.7906 63.206 19.6932C63.5746 19.5958 63.8633 19.3092 63.9633 18.9412C64.0633 18.5732 63.9594 18.1799 63.6907 17.9093L59.1041 13.2949Z" fill="#6548A3"/>
<path d="M41.6 2.66666C42.1891 2.66666 42.6667 2.1891 42.6667 1.59999C42.6667 1.01089 42.1891 0.533325 41.6 0.533325C41.0109 0.533325 40.5333 1.01089 40.5333 1.59999C40.5333 2.1891 41.0109 2.66666 41.6 2.66666Z" fill="#61C5BD"/>
<path d="M41.6 13.3333C42.1891 13.3333 42.6667 12.8557 42.6667 12.2666C42.6667 11.6775 42.1891 11.2 41.6 11.2C41.0109 11.2 40.5333 11.6775 40.5333 12.2666C40.5333 12.8557 41.0109 13.3333 41.6 13.3333Z" fill="#61C5BD"/>
<path d="M12.8 8.00002C12.8 7.41091 12.3225 6.93335 11.7334 6.93335H1.06671C0.635359 6.93344 0.246518 7.19333 0.0814577 7.59185C-0.0836025 7.99038 0.00761242 8.44909 0.312581 8.75415L4.89178 13.3334L0.312581 17.9125C0.00761242 18.2176 -0.0836025 18.6763 0.0814577 19.0748C0.246518 19.4734 0.635359 19.7333 1.06671 19.7334H11.7334C12.3225 19.7334 12.8 19.2558 12.8 18.6667C12.8 18.0776 12.3225 17.6 11.7334 17.6H3.64165L7.15418 14.0875C7.57059 13.6709 7.57059 12.9957 7.15418 12.5792L3.64165 9.06668H11.7334C12.3225 9.06668 12.8 8.58912 12.8 8.00002Z" fill="#61C5BD"/>
</g>
<defs>
<clipPath id="clip0">
<rect width="64" height="64" fill="white"/>
</clipPath>
</defs>
</svg>
