<svg width="64" height="64" viewBox="0 0 64 64" fill="none" xmlns="http://www.w3.org/2000/svg">
<g clip-path="url(#clip0)">
<path fill-rule="evenodd" clip-rule="evenodd" d="M27.9508 3.87805H4.04925C1.81288 3.87805 0 5.69105 0 7.9273V28.0624C0 30.2812 1.78475 32.0822 3.99675 32.1103V32.1116L3.99697 32.1117H3.99677V41.5178C3.99677 42.1078 4.74139 42.3664 5.10714 41.9034L12.355 32.7277C12.6618 32.3393 13.1292 32.1124 13.624 32.1117L13.6265 32.1117L27.9508 32.1117H28.3101H36.0701C38.3065 32.1117 40.1194 30.2988 40.1194 28.0624V7.9273C40.1194 5.69105 38.3065 3.87805 36.0701 3.87805H28.3105H27.9508Z" fill="#EDEBF5"/>
<path fill-rule="evenodd" clip-rule="evenodd" d="M51.2621 51.15L49.8076 49.3085C49.4546 48.8616 48.9165 48.6008 48.3467 48.6008H22.5651C19.9961 48.6008 17.9136 46.5183 17.9136 43.9493V20.8196C17.9136 18.2506 19.9961 16.1681 22.5651 16.1681H51.2018H51.6522H59.3486C61.9176 16.1681 64.0001 18.2506 64.0002 20.8196V43.9492C64.0002 46.498 61.95 48.5668 59.409 48.5992V59.4058C59.409 60.0836 58.5536 60.3807 58.1335 59.8488L51.2623 51.15C51.2622 51.15 51.2622 51.15 51.2621 51.15Z" fill="#61C5BD"/>
<path d="M56.2807 25.5803H25.6329C25.0995 25.5803 24.6671 25.1479 24.6671 24.6146C24.6671 24.0812 25.0995 23.6488 25.6329 23.6488H56.2807C56.8141 23.6488 57.2465 24.0812 57.2465 24.6146C57.2465 25.1479 56.8141 25.5803 56.2807 25.5803Z" fill="#F0F7FF"/>
<path d="M56.2807 32.9634H25.6329C25.0995 32.9634 24.6671 32.531 24.6671 31.9976C24.6671 31.4642 25.0995 31.0319 25.6329 31.0319H56.2807C56.8141 31.0319 57.2465 31.4642 57.2465 31.9976C57.2465 32.5309 56.8141 32.9634 56.2807 32.9634Z" fill="#F0F7FF"/>
<path d="M41.4862 40.3462H25.1809C24.8971 40.3462 24.6671 39.9138 24.6671 39.3804C24.6671 38.847 24.8971 38.4147 25.1809 38.4147H41.4862C41.77 38.4147 42 38.847 42 39.3804C42 39.9138 41.77 40.3462 41.4862 40.3462Z" fill="#F0F7FF"/>
</g>
<defs>
<clipPath id="clip0">
<rect width="64" height="64" fill="white"/>
</clipPath>
</defs>
</svg>
