<svg width="54" height="64" viewBox="0 0 54 64" fill="none" xmlns="http://www.w3.org/2000/svg">
<path d="M52.3935 54.9442L33 22.1742V4C33 3.44775 32.5527 3 32 3C31.4472 3 31 3.44775 31 4H23C23 3.44775 22.5527 3 22 3C21.4472 3 21 3.44775 21 4V22.1742L1.60649 54.9442C0.494245 56.8226 0.47662 59.0761 1.55762 60.9721C2.63862 62.8681 4.58687 64 6.76949 64H47.2304C49.413 64 51.3612 62.8681 52.4422 60.9721C53.5234 59.0761 53.5059 56.8227 52.3935 54.9442Z" fill="#EDEBF5"/>
<path d="M48.9521 56.9814L43.335 47.4906C43.1553 47.1864 42.8281 46.9999 42.4746 46.9999H11.5254C11.1719 46.9999 10.8448 47.1864 10.665 47.4906L5.04876 56.9814C4.67276 57.6161 4.66601 58.3481 5.03214 58.9916C5.39939 59.6323 6.03214 59.9999 6.76939 59.9999H47.2303C47.9675 59.9999 48.6004 59.6322 48.9685 58.9896C49.334 58.3486 49.3281 57.6166 48.9521 56.9814Z" fill="#61C5BD"/>
<path d="M30 31H24C23.4473 31 23 30.5523 23 30C23 29.4477 23.4473 29 24 29H30C30.5528 29 31 29.4477 31 30C31 30.5523 30.5528 31 30 31Z" fill="#FF6680"/>
<path d="M30 36H24C23.4473 36 23 35.5523 23 35C23 34.4477 23.4473 34 24 34H30C30.5528 34 31 34.4477 31 35C31 35.5523 30.5528 36 30 36Z" fill="#FF6680"/>
<path d="M30 41H24C23.4473 41 23 40.5523 23 40C23 39.4477 23.4473 39 24 39H30C30.5528 39 31 39.4477 31 40C31 40.5523 30.5528 41 30 41Z" fill="#FF6680"/>
<path d="M32 56C33.1046 56 34 55.1046 34 54C34 52.8954 33.1046 52 32 52C30.8954 52 30 52.8954 30 54C30 55.1046 30.8954 56 32 56Z" fill="white"/>
<path d="M21 53C22.1046 53 23 52.1046 23 51C23 49.8954 22.1046 49 21 49C19.8954 49 19 49.8954 19 51C19 52.1046 19.8954 53 21 53Z" fill="white"/>
<path d="M39 53C39.5523 53 40 52.5523 40 52C40 51.4477 39.5523 51 39 51C38.4477 51 38 51.4477 38 52C38 52.5523 38.4477 53 39 53Z" fill="white"/>
<path d="M24 56C24.5523 56 25 55.5523 25 55C25 54.4477 24.5523 54 24 54C23.4477 54 23 54.4477 23 55C23 55.5523 23.4477 56 24 56Z" fill="white"/>
<path d="M15 54C15.5523 54 16 53.5523 16 53C16 52.4477 15.5523 52 15 52C14.4477 52 14 52.4477 14 53C14 53.5523 14.4477 54 15 54Z" fill="white"/>
<path d="M33 0H21C19.8954 0 19 0.895375 19 2C19 3.10462 19.8954 4 21 4H33C34.1046 4 35 3.10462 35 2C35 0.895375 34.1045 0 33 0Z" fill="#6548A3"/>
</svg>
